<svg width="18" height="18" viewBox="0 0 18 18" fill="none" xmlns="http://www.w3.org/2000/svg">
<path d="M8.71875 9.00076C8.71875 9.15601 8.84475 9.28201 9 9.28051C9.15525 9.28051 9.28125 9.15451 9.28125 8.99926C9.28125 8.84401 9.15525 8.71801 9 8.71801C8.84475 8.71876 8.71875 8.84476 8.71875 9.00076" stroke="#00796B" stroke-width="1.125" stroke-linecap="round" stroke-linejoin="round"/>
<path d="M8.71875 6.00076C8.71875 6.15601 8.84475 6.28201 9 6.28051C9.15525 6.28051 9.28125 6.15451 9.28125 5.99926C9.28125 5.84401 9.15525 5.71801 9 5.71801C8.84475 5.71876 8.71875 5.84476 8.71875 6.00076" stroke="#00796B" stroke-width="1.125" stroke-linecap="round" stroke-linejoin="round"/>
<path d="M8.71875 12.0008C8.71875 12.156 8.84475 12.282 9 12.2805C9.15525 12.2805 9.28125 12.1545 9.28125 11.9993C9.28125 11.844 9.15525 11.718 9 11.718C8.84475 11.7188 8.71875 11.8448 8.71875 12.0008" stroke="#00796B" stroke-width="1.125" stroke-linecap="round" stroke-linejoin="round"/>
<path fill-rule="evenodd" clip-rule="evenodd" d="M15.75 5.25V12.75C15.75 14.4068 14.4068 15.75 12.75 15.75H5.25C3.59325 15.75 2.25 14.4068 2.25 12.75V5.25C2.25 3.59325 3.59325 2.25 5.25 2.25H12.75C14.4068 2.25 15.75 3.59325 15.75 5.25Z" stroke="#00796B" stroke-width="1.125" stroke-linecap="round" stroke-linejoin="round"/>
</svg>
