<svg width="18" height="18" viewBox="0 0 18 18" fill="none" xmlns="http://www.w3.org/2000/svg">
<path d="M9.70484 8.29504L4.40234 13.5975" stroke="#5D717D" stroke-width="1.125" stroke-linecap="round" stroke-linejoin="round"/>
<path d="M4.97508 9.7492L2.37783 9.1357C2.09208 9.0682 1.99158 8.71345 2.19858 8.5057L4.26408 6.4402C4.40283 6.30145 4.59108 6.22195 4.78833 6.22045L7.11708 6.2002" stroke="#5D717D" stroke-width="1.125" stroke-linecap="round" stroke-linejoin="round"/>
<path fill-rule="evenodd" clip-rule="evenodd" d="M14.9093 6.73122L15.5153 3.81522C15.6803 3.02172 14.9783 2.31972 14.1848 2.48472L11.2688 3.09072C10.4101 3.26922 9.62255 3.69447 9.00305 4.31472L6.61055 6.70647C5.6978 7.61922 5.1038 8.80272 4.9163 10.08L4.90805 10.1347C4.78955 10.95 5.06255 11.7727 5.64455 12.3555V12.3555C6.22655 12.9375 7.05005 13.2105 7.8653 13.0912L7.92005 13.083C9.1973 12.8962 10.3808 12.3015 11.2936 11.3887L13.6853 8.99697C14.3056 8.37747 14.7308 7.58997 14.9093 6.73122V6.73122Z" stroke="#5D717D" stroke-width="1.125" stroke-linecap="round" stroke-linejoin="round"/>
<path d="M10.0498 3.53552C11.7831 4.71752 13.2823 6.21677 14.4643 7.95002" stroke="#5D717D" stroke-width="1.125" stroke-linecap="round" stroke-linejoin="round"/>
<path d="M8.25 13.0253L8.8635 15.6226C8.931 15.9083 9.28575 16.0088 9.4935 15.8018L11.559 13.7363C11.6978 13.5976 11.7772 13.4093 11.7787 13.2121L11.799 10.8833" stroke="#5D717D" stroke-width="1.125" stroke-linecap="round" stroke-linejoin="round"/>
</svg>
