<svg width="18" height="18" viewBox="0 0 18 18" fill="none" xmlns="http://www.w3.org/2000/svg">
<path d="M11.8291 14.2521H6.28516" stroke="#5D717D" stroke-width="1.125" stroke-linecap="round" stroke-linejoin="round"/>
<circle cx="13.0123" cy="13.6894" r="1.31305" stroke="#5D717D" stroke-width="1.125" stroke-linecap="round" stroke-linejoin="round"/>
<circle cx="4.97223" cy="13.6894" r="1.31305" stroke="#5D717D" stroke-width="1.125" stroke-linecap="round" stroke-linejoin="round"/>
<path d="M14.1971 14.2521H15.1249C15.6796 14.2515 16.1508 13.8461 16.2342 13.2978L16.4857 11.6584C16.6081 10.8917 16.1243 10.1586 15.3713 9.96955C14.2458 9.70193 13.09 9.58335 11.9337 9.61685C11.2606 9.02811 10.5158 8.52678 9.71704 8.12476C8.0545 7.29093 6.09588 7.29093 4.43334 8.12476L2.74439 8.97156C2.50644 9.08943 2.25942 9.188 2.0057 9.26635C1.70004 9.36634 1.4943 9.65274 1.4971 9.97433V13.1267C1.49671 13.4248 1.61473 13.7108 1.82522 13.9219C2.0357 14.133 2.32141 14.2518 2.61949 14.2522H3.78803" stroke="#5D717D" stroke-width="1.125" stroke-linecap="round" stroke-linejoin="round"/>
</svg>
