<svg width="24" height="24" viewBox="0 0 24 24" fill="none" xmlns="http://www.w3.org/2000/svg">
<path fill-rule="evenodd" clip-rule="evenodd" d="M9.40069 3.00299C10.5557 1.00299 13.4437 1.00299 14.5977 3.00299L21.9527 15.751C23.1067 17.751 21.6627 20.251 19.3537 20.251H4.64469C2.33569 20.251 0.89269 17.751 2.04669 15.751L9.40069 3.00299ZM11.9997 8.24999C12.1986 8.24999 12.3894 8.32901 12.53 8.46966C12.6707 8.61031 12.7497 8.80108 12.7497 8.99999V12.75C12.7497 12.9489 12.6707 13.1397 12.53 13.2803C12.3894 13.421 12.1986 13.5 11.9997 13.5C11.8008 13.5 11.61 13.421 11.4694 13.2803C11.3287 13.1397 11.2497 12.9489 11.2497 12.75V8.99999C11.2497 8.80108 11.3287 8.61031 11.4694 8.46966C11.61 8.32901 11.8008 8.24999 11.9997 8.24999ZM11.9997 16.5C12.1986 16.5 12.3894 16.421 12.53 16.2803C12.6707 16.1397 12.7497 15.9489 12.7497 15.75C12.7497 15.5511 12.6707 15.3603 12.53 15.2197C12.3894 15.079 12.1986 15 11.9997 15C11.8008 15 11.61 15.079 11.4694 15.2197C11.3287 15.3603 11.2497 15.5511 11.2497 15.75C11.2497 15.9489 11.3287 16.1397 11.4694 16.2803C11.61 16.421 11.8008 16.5 11.9997 16.5Z" fill="#B3261E"/>
</svg>
