<svg width="24" height="24" viewBox="0 0 24 24" fill="none" xmlns="http://www.w3.org/2000/svg">
<path d="M21 11V19C21 20.105 20.105 21 19 21H5C3.895 21 3 20.105 3 19V5C3 3.895 3.895 3 5 3H12" stroke="#00796B" stroke-width="1.5" stroke-linecap="round" stroke-linejoin="round"/>
<path fill-rule="evenodd" clip-rule="evenodd" d="M9 15.0002L12.15 14.6112C12.371 14.5842 12.577 14.4832 12.735 14.3262L20.366 6.69524C21.211 5.85024 21.211 4.48024 20.366 3.63424V3.63424C19.521 2.78924 18.151 2.78924 17.305 3.63424L9.745 11.1942C9.592 11.3472 9.493 11.5452 9.462 11.7602L9 15.0002Z" stroke="#00796B" stroke-width="1.5" stroke-linecap="round" stroke-linejoin="round"/>
</svg>
