<svg width="24" height="24" viewBox="0 0 24 24" fill="none" xmlns="http://www.w3.org/2000/svg">
<path fill-rule="evenodd" clip-rule="evenodd" d="M6 21C4.34315 21 3 19.6569 3 18L3 12C3 10.3431 4.34315 9 6 9H12C13.6569 9 15 10.3431 15 12V18C15 19.6569 13.6569 21 12 21H6Z" stroke="#00796B" stroke-width="1.5" stroke-linecap="round" stroke-linejoin="round"/>
<path d="M7 17L11 13" stroke="#00796B" stroke-width="1.5" stroke-linecap="round" stroke-linejoin="round"/>
<path d="M7 13H11V17" stroke="#00796B" stroke-width="1.5" stroke-linecap="round" stroke-linejoin="round"/>
<path d="M9 6C9 4.34315 10.3431 3 12 3H18C19.6569 3 21 4.34315 21 6V12C21 13.6569 19.6569 15 18 15" stroke="#00796B" stroke-width="1.5" stroke-linecap="round" stroke-linejoin="round"/>
</svg>
